<?xml version="1.0" encoding="utf-8"?>
<!-- Generator: Adobe Illustrator 19.2.1, SVG Export Plug-In . SVG Version: 6.00 Build 0)  -->
<svg version="1.1" id="Layer_1" xmlns="http://www.w3.org/2000/svg" xmlns:xlink="http://www.w3.org/1999/xlink" x="0px" y="0px"
	 viewBox="0 0 409.6 429.5" style="enable-background:new 0 0 409.6 429.5;" xml:space="preserve">
<title>github</title>
<path d="M349.6,60C311.3,21.5,259.1-0.2,204.8,0C150.5-0.2,98.3,21.5,60,60C21.5,98.3-0.2,150.5,0,204.8
	c-0.1,54.3,21.5,106.5,60,144.8c38.3,38.5,90.5,60.1,144.8,60c54.3,0.1,106.5-21.5,144.8-60c38.5-38.3,60.1-90.5,60-144.8
	C409.7,150.5,388.1,98.3,349.6,60L349.6,60L349.6,60z M340.6,340.6c-35.9,36.1-84.8,56.4-135.8,56.2c-50.9,0.1-99.8-20.1-135.8-56.2
	c-36.1-35.9-56.4-84.8-56.2-135.8C12.7,153.9,32.9,105,69,69c35.9-36.1,84.8-56.4,135.8-56.2c51-0.1,99.8,20.1,135.8,56.2
	c36.1,35.9,56.4,84.8,56.2,135.8C396.9,255.8,376.7,304.6,340.6,340.6L340.6,340.6z M344,92c-2.2-2.7-6.3-3.2-9-0.9
	c-2.7,2.2-3.2,6.3-0.9,9c24,29.6,37.1,66.6,37.1,104.8c0.1,44.2-17.4,86.5-48.7,117.7c-31.1,31.3-73.5,48.9-117.7,48.7
	c-40.9,0-80.4-15.1-110.9-42.4c-2.6-2.3-6.6-2.1-9,0.5c-2.3,2.6-2.1,6.6,0.5,9c32.8,29.4,75.3,45.7,119.4,45.7
	c47.6,0.1,93.2-18.8,126.7-52.5c33.7-33.5,52.6-79.2,52.5-126.7C384,163.7,369.8,123.9,344,92L344,92L344,92z M38.4,204.8
	c0-91.8,74.6-166.4,166.4-166.4c40.9,0,80.5,15.1,111,42.4c2.6,2.3,6.6,2.1,9-0.5c2.3-2.6,2.1-6.6-0.5-9
	c-32.8-29.4-75.3-45.7-119.4-45.7c-47.6-0.1-93.2,18.8-126.7,52.5c-33.7,33.5-52.6,79.2-52.5,126.7c0,41.1,14.2,80.9,40,112.8
	c1.2,1.5,3.1,2.4,5,2.4c1.5,0,2.9-0.5,4-1.4c2.7-2.2,3.2-6.3,0.9-9C51.5,279.9,38.4,242.9,38.4,204.8L38.4,204.8z M194.6,336.2
	c-16.6,0-27-1.2-30.7-3.5c-2.5-1.4-4-4.1-3.9-7c0.3-6.6,0.2-13.1,0.2-19.5V306c-4.8,0.2-9.5,0.1-14.3-0.2
	c-17.5-1.5-29.4-9.8-35.4-24.8c-3.2-7.9-7.7-13.6-13.9-17.5c-2.3-1.6-4.1-3.7-5.4-6.2c-0.3-0.6-0.6-1.1-0.9-1.5l-5.9-8.2l12.4-3.3
	c1.7-0.5,3.3-0.9,5-1.4l0.7-0.1c1.2-0.2,2.4-0.1,3.5,0.3c10.2,1.9,18.4,8,25,18.4c7.4,11.8,17.7,15.2,30.6,10.2
	c1.2-2.9,2.4-5.9,3.6-9l-0.3,0c-20.9-4-35.6-11.9-46.5-24.9c-16.5-19.7-24-67.5-1.4-94c-2.7-10.6-2.6-21.7,0.4-32.3
	c1.1-4.2,2.3-8.5,6.3-10.9s8.3-1.5,12.6-0.7c12,2.4,22.3,8.4,30.6,13.3c0.6,0.3,1.3,0.5,2,0.5c22.2-5.1,42.1-5.6,60.8-1.4
	c7,1.6,11.9,0.8,17.5-3c8.6-6,18.7-9.4,29.2-10.1c6-0.4,10.2,2.5,12.1,8.2c4.1,12.8,4.7,24.7,1.6,36.4c10.6,13.3,15.2,29.7,13.9,50
	c-2.3,36.8-21.3,59.6-56.4,67.7c-1.7,0.4-3.4,0.7-5.1,1c4.9,10.3,4.8,21.2,4.6,29.7c-0.1,9.5-0.2,19.6-0.1,32l0,0
	c0,3.1-1.8,5.9-4.5,7.2c-6.5,3.7-27.7,4.6-39.8,4.8C200,336.2,197.2,336.2,194.6,336.2z M174.1,321.3c12.4,1.7,47.7,0.9,59.1-1.5
	c-0.1-10.6,0-19.5,0.1-28c0.2-12-0.3-21.8-7.6-29.8l-8.7-9.4l12.6-2.2c1.8-0.3,3.4-0.6,5.1-0.9c3.5-0.6,6.8-1.1,10-1.9
	c29.1-6.7,43.6-24.1,45.5-54.9c1.1-17.4-2.6-30.6-11.7-41.3c-2.8-3.2-2.7-7.9-1.9-10.9c2.3-8.6,2.1-17.6-0.8-27.3
	c-7.4,0.8-14.5,3.4-20.6,7.6c-8.8,5.9-17.6,7.5-28.4,5c-16.6-3.7-34.5-3.3-54.6,1.4c-4.2,0.8-8.5,0.1-12.2-2.1
	c-9.4-5.5-17.3-9.9-26.2-11.6c-0.4-0.1-1.3-0.3-2.2-0.4c-0.2,0.5-0.4,1.2-0.6,2c-2.5,8.4-2.5,17.3-0.2,25.7c1,4,0.1,8.2-2.5,11.4
	c-19.1,21.4-10.8,62.5,1,76.6c8.8,10.5,20.6,16.7,38.3,20.1c1.6,0.3,3.2,0.5,4.8,0.8c1.2,0.2,2.5,0.4,3.7,0.6l8.4,1.5l-3.1,7.9
	c-0.6,1.6-1.2,3.2-1.9,4.8c-1.8,4.8-3.5,9.2-5.4,13.8c-1.7,4-5.7,5.8-7.3,6.4c-17.4,6.8-33.3,2.7-44.3-11.1c0.3,0.7,0.6,1.4,0.9,2.2
	c4,10,11.5,15.1,23.6,16.1c4.4,0.3,8.7,0.3,13.1,0.2c2.2,0,4.6-0.1,7-0.1h7v7c0,2.3,0,4.8,0,7.3C174.2,311,174.3,316.1,174.1,321.3
	L174.1,321.3z M290.1,144.3L290.1,144.3z M117.9,142.8L117.9,142.8z M256.7,428.7l-0.2,0.6l0.8,0.1
	C257.5,429.4,257.7,429.8,256.7,428.7z"/>
</svg>
